<svg xmlns="http://www.w3.org/2000/svg" viewBox="0 0 374.84 424.7">
<defs>
<style>.cls-1{fill:none;stroke:#000;stroke-width:5px;}</style>
</defs>
<title>apple</title>
<g id="Ebene_2" data-name="Ebene 2"><g id="Ebene_1-2" data-name="Ebene 1">
<path class="cls-1" d="M209,88.2s18.41-48.31,34-58,24.3-5.14,27.07-1.38,3.16,10.28-3.57,15.23S237.27,63.43,227,89.34c26.31.8,19,0,34.62,1.59s95.54,3,108.4,101.67c8.69,66.77-5.94,157.81-58.36,203.34-25.06,21.77-60.2,28.06-102.85,25.84-40.16-2.08-63.35-3.49-84.4-12.65C76.32,388.2,62.7,348.9,49.49,325.78,30.5,292.55,12.57,241.39,31,180.2,49,113.48,93.8,102.66,114.9,97.39s62.77-7.91,62.77-7.91S170,79.06,127.29,81,45,96.47,3.47,15.76C55.29-5.6,100.79,4.69,114.24,7.06s33.23,12.66,45.1,36.39,22.94,44.71,25.31,46.29S209,88.2,209,88.2Z"/>
</g></g></svg>