<svg xmlns="http://www.w3.org/2000/svg" viewBox="0 0 374.84 424.7"><defs><style>.cls-1,.cls-2,.cls-3{fill:none;}.cls-1,.cls-3{stroke:#000;}.cls-1{stroke-width:5px;}.cls-3{stroke-linecap:round;stroke-width:4px;}</style></defs><title>apple_unhappy</title><g id="Ebene_2" data-name="Ebene 2"><g id="Ebene_1-2" data-name="Ebene 1"><path class="cls-1" d="M209,88.2s18.41-48.31,34-58,24.3-5.14,27.07-1.38,3.16,10.28-3.57,15.23S237.27,63.43,227,89.34c26.31.8,19,0,34.62,1.59s95.54,3,108.4,101.67c8.69,66.77-5.94,157.81-58.36,203.34-25.06,21.77-60.2,28.06-102.85,25.84-40.16-2.08-63.35-3.49-84.4-12.65C76.32,388.2,62.7,348.9,49.49,325.78,30.5,292.55,12.57,241.39,31,180.2,49,113.48,93.8,102.66,114.9,97.39s62.77-7.91,62.77-7.91S170,79.06,127.29,81,45,96.47,3.47,15.76C55.29-5.6,100.79,4.69,114.24,7.06s33.23,12.66,45.1,36.39,22.94,44.71,25.31,46.29S209,88.2,209,88.2Z"/><path d="M162.5,189.64a83.14,83.14,0,0,0,6.24-10,72.13,72.13,0,0,0,4.71-11l-2.38-.78L168.7,167a67.27,67.27,0,0,1-5.13,11.6,81.92,81.92,0,0,1-7,10.43h.75a22.44,22.44,0,0,1,2.61.16A23,23,0,0,1,162.5,189.64Z"/><path class="cls-2" d="M149.73,204.15c-3.24,3.09-6.56,5.92-9.86,8.5a17.52,17.52,0,1,0,19.18-18.52A110.09,110.09,0,0,1,149.73,204.15Z"/><path d="M139.81,211.59c0,.18,0,.35,0,.53s0,.35,0,.53c3.3-2.58,6.62-5.41,9.86-8.5a110.09,110.09,0,0,0,9.32-10l-.84-.06c-.28,0-.57,0-.85,0a17.55,17.55,0,0,0-3,.27,17.85,17.85,0,0,0-2.83.75q-2.51,2.72-5.13,5.22c-1.74,1.66-3.52,3.25-5.3,4.77a17.75,17.75,0,0,0-1.28,6.54Z"/><path d="M134.81,211.59c0-.26,0-.52,0-.78s0-.52,0-.78a161,161,0,0,1-19.73,12.74c-5.28,2.89-8.74,4.4-8.87,4.45l1,2.3,1,2.3c.51-.22,3.81-1.65,8.72-4.28a164.36,164.36,0,0,0,18.32-11.44c-.15-.73-.26-1.47-.34-2.22A21.81,21.81,0,0,1,134.81,211.59Z"/><path d="M174.94,197.49a22.65,22.65,0,0,0-12.44-7.85c-.55.77-1.12,1.53-1.69,2.28s-1.16,1.48-1.76,2.21a17.53,17.53,0,1,1-19.18,18.52q-1.16.9-2.31,1.77c-.77.57-1.53,1.14-2.29,1.68a22.54,22.54,0,1,0,39.67-18.61Z"/><path d="M157.36,194c.28,0,.57,0,.85,0l.84.06c.6-.73,1.18-1.47,1.76-2.21s1.14-1.51,1.69-2.28a23,23,0,0,0-2.53-.44,22.44,22.44,0,0,0-2.61-.16h-.75c-.81,1-1.65,2.06-2.5,3.06s-1.71,2-2.59,2.94a17.85,17.85,0,0,1,2.83-.75A17.55,17.55,0,0,1,157.36,194Z"/><path d="M139.87,212.65c0-.18,0-.35,0-.53s0-.35,0-.53a17.75,17.75,0,0,1,1.28-6.54c-1,.88-2.07,1.74-3.11,2.57s-2.08,1.63-3.11,2.41c0,.26,0,.52,0,.78s0,.52,0,.78a21.81,21.81,0,0,0,.12,2.29c.08.75.19,1.49.34,2.22.76-.54,1.52-1.11,2.29-1.68S139.1,213.25,139.87,212.65Z"/><path class="cls-2" d="M271.64,191.73a17.54,17.54,0,1,0,19.19,18.52c-3.3-2.58-6.63-5.42-9.87-8.5A110.09,110.09,0,0,1,271.64,191.73Z"/><path d="M273.34,186.64h.74a81.92,81.92,0,0,1-7-10.43A66.24,66.24,0,0,1,262,164.62l-2.38.79-2.37.78a72.09,72.09,0,0,0,4.7,11,84.42,84.42,0,0,0,6.24,10,23.45,23.45,0,0,1,2.53-.44A20.6,20.6,0,0,1,273.34,186.64Z"/><path d="M273.34,191.64l-.86,0-.84.07a110.09,110.09,0,0,0,9.32,10c3.24,3.08,6.57,5.92,9.87,8.5l0-.53c0-.18,0-.36,0-.53a17.22,17.22,0,0,0-1.28-6.54q-2.67-2.28-5.3-4.77c-1.74-1.67-3.46-3.41-5.12-5.22a18.26,18.26,0,0,0-2.84-.75A16.57,16.57,0,0,0,273.34,191.64Z"/><path d="M315.55,220.36a162.74,162.74,0,0,1-19.73-12.73c0,.26,0,.52,0,.77s0,.52,0,.79a21.81,21.81,0,0,1-.12,2.29,20.49,20.49,0,0,1-.34,2.22,165.28,165.28,0,0,0,18.32,11.44c4.91,2.63,8.21,4.06,8.72,4.28l1-2.3,1-2.3C324.3,224.77,320.83,223.25,315.55,220.36Z"/><path d="M290.83,210.25a17.53,17.53,0,1,1-19.19-18.52c-.59-.73-1.18-1.47-1.75-2.21s-1.14-1.51-1.7-2.28a22.53,22.53,0,1,0,27.23,26.46c-.75-.54-1.52-1.11-2.29-1.68Z"/><path d="M271.64,191.73l.84-.07.86,0a16.57,16.57,0,0,1,3,.27,18.26,18.26,0,0,1,2.84.75c-.88-1-1.75-1.94-2.6-2.94s-1.68-2-2.5-3.06h-.74a20.6,20.6,0,0,0-2.62.16,23.45,23.45,0,0,0-2.53.44c.56.77,1.12,1.53,1.7,2.28S271.05,191,271.64,191.73Z"/><path d="M295.88,209.19c0-.27,0-.53,0-.79s0-.51,0-.77c-1-.78-2.07-1.58-3.11-2.41s-2.07-1.69-3.11-2.57a17.22,17.22,0,0,1,1.28,6.54c0,.17,0,.35,0,.53l0,.53,2.3,1.77c.77.57,1.54,1.14,2.29,1.68a20.49,20.49,0,0,0,.34-2.22A21.81,21.81,0,0,0,295.88,209.19Z"/><path class="cls-3" d="M144.74,329.17S233.56,263.24,289.92,307"/></g></g></svg>